HIERARCHY
ROOT Hips
{
  OFFSET -187.679 86.5976 -156.378
  CHANNELS 6 Xposition Yposition Zposition Zrotation Xrotation Yrotation
  JOINT LeftUpLeg
  {
    OFFSET 8.64259 1.95398 -2.38835
    CHANNELS 3 Zrotation Xrotation Yrotation
    JOINT LeftLeg
    {
      OFFSET 43.7702 0 0
      CHANNELS 3 Zrotation Xrotation Yrotation
      JOINT LeftFoot
      {
        OFFSET 40.6238 0 0
        CHANNELS 3 Zrotation Xrotation Yrotation
        JOINT LeftToeBase
        {
          OFFSET 12.7242 0 0
          CHANNELS 3 Zrotation Xrotation Yrotation
          End Site
          {
            OFFSET 0 0 0
          }
        }
      }
    }
  }
  JOINT RightUpLeg
  {
    OFFSET -8.2249 1.95398 -2.59336
    CHANNELS 3 Zrotation Xrotation Yrotation
    JOINT RightLeg
    {
      OFFSET 43.5653 0 0
      CHANNELS 3 Zrotation Xrotation Yrotation
      JOINT RightFoot
      {
        OFFSET 40.6238 0 0
        CHANNELS 3 Zrotation Xrotation Yrotation
        JOINT RightToeBase
        {
          OFFSET 12.7242 0 0
          CHANNELS 3 Zrotation Xrotation Yrotation
          End Site
          {
            OFFSET 0 0 0
          }
        }
      }
    }
  }
  JOINT Spine
  {
    OFFSET 0.165834 0.87714 6.61349
    CHANNELS 3 Zrotation Xrotation Yrotation
    JOINT Spine1
    {
      OFFSET 7.38963 1.71661e-005 0
      CHANNELS 3 Zrotation Xrotation Yrotation
      JOINT Spine2
      {
        OFFSET 11.9445 1.14441e-005 0
        CHANNELS 3 Zrotation Xrotation Yrotation
        JOINT Spine3
        {
          OFFSET 14.7254 4.19617e-005 0
          CHANNELS 3 Zrotation Xrotation Yrotation
          JOINT Spine4
          {
            OFFSET 10.9679 0 0
            CHANNELS 3 Zrotation Xrotation Yrotation
            JOINT RightShoulder
            {
              OFFSET 2.46616 -1.6653 3.69651
              CHANNELS 3 Zrotation Xrotation Yrotation
              JOINT RightArm
              {
                OFFSET 13.0012 0 0
                CHANNELS 3 Zrotation Xrotation Yrotation
                JOINT RightForeArm
                {
                  OFFSET 28.7848 1.52588e-005 0
                  CHANNELS 3 Zrotation Xrotation Yrotation
                  JOINT RightHand
                  {
                    OFFSET 26.5688 1.52588e-005 0
                    CHANNELS 3 Zrotation Xrotation Yrotation
                    End Site
                    {
                      OFFSET 0 0 0
                    }
                  }
                }
              }
            }
            JOINT LeftShoulder
            {
              OFFSET 2.38034 -1.29275 -3.7523
              CHANNELS 3 Zrotation Xrotation Yrotation
              JOINT LeftArm
              {
                OFFSET 16.3182 6.10352e-005 0
                CHANNELS 3 Zrotation Xrotation Yrotation
                JOINT LeftForeArm
                {
                  OFFSET 27.0901 0 0
                  CHANNELS 3 Zrotation Xrotation Yrotation
                  JOINT LeftHand
                  {
                    OFFSET 24.5451 1.52588e-005 0
                    CHANNELS 3 Zrotation Xrotation Yrotation
                    End Site
                    {
                      OFFSET 0 0 0
                    }
                  }
                }
              }
            }
            JOINT Neck
            {
              OFFSET 5.0226 -0.0266342 0
              CHANNELS 3 Zrotation Xrotation Yrotation
              JOINT Head
              {
                OFFSET 6.69363 2.86102e-005 0
                CHANNELS 3 Zrotation Xrotation Yrotation
                End Site
                {
                  OFFSET 0 0 0
                }
              }
            }
          }
        }
      }
    }
  }
}
MOTION
Frames:	12
Frame Time:	0.0416667
23.8523 100.684 -347.141 113.307 -88.5805 112.252 -171.477 -4.24935 94.5071 -17.9137 24.9419 7.00094 70.8573 4.8223 -2.43476 34.6654 0.354362 7.09104 175.136 -8.09107 92.0391 -14.4023 12.9497 2.25791 73.9854 -5.87954 0.826498 23.4406 -1.81566 2.91227 -0.312475 7.94165 -90.0248 10.9908 -0.633496 0.0111834 -0.680034 -0.632385 0.0390534 -23.2164 -0.60757 -0.179729 -3.20371 -0.607566 -0.179727 87.6333 -48.478 -104.649 32.4627 -10.6824 23.0074 -42.3534 -0.527042 -75.9705 -4.45114 -0.282806 2.74245 -90.4764 -44.3858 76.9149 -24.8388 27.8746 -3.24986 -2.11537 -13.7242 -53.5074 19.5409 11.0433 49.2368 20.6113 -0.933237 -6.55525 5.84776 1.47158 3.94582 
24.0079 100.391 -346.829 80.7468 -86.4316 78.1342 -173.519 -1.66869 92.3035 -21.0749 24.6037 7.7639 71.1827 5.40586 -1.50266 35.8891 1.08768 6.37514 173.539 -5.94918 90.2346 -16.9879 13.4327 3.14545 75.447 -5.86846 0.640795 23.9134 -2.12136 4.08212 -0.596591 7.85785 -89.8194 11.1606 -1.1035 0.467286 -0.509948 -1.08187 0.515401 -23.0488 -1.19292 0.113989 -3.03614 -1.19292 0.11399 87.3232 -48.948 -104.993 32.7383 -9.44631 27.0876 -42.8812 1.47779 -79.3405 -4.46198 -0.27901 2.57133 -88.7744 -42.2616 79.138 -27.1655 28.2099 1.20647 14.342 -7.09196 -61.031 26.9289 8.16143 21.4049 21.3154 -1.27467 -8.63181 5.6226 1.9083 4.84055 
23.7956 99.906 -346.027 78.567 -85.7524 75.4546 -174.47 0.312393 91.7079 -25.3294 23.7032 7.34494 72.4491 7.46087 2.10738 35.4559 1.75731 3.01107 173.064 -5.104 89.8059 -19.5107 14.0345 3.48531 77.2003 -5.9647 1.10216 24.227 -1.73277 3.10473 -0.628697 7.895 -89.879 11.0859 -1.19524 0.356478 -0.584515 -1.17839 0.408741 -23.1241 -1.24711 -0.019264 -3.11142 -1.24711 -0.0192775 88.3686 -47.8231 -103.691 33.3757 -8.98385 30.0711 -44.3071 2.40817 -81.2341 -5.56345 -0.409561 3.96107 -87.1803 -42.7405 81.8483 -28.7984 34.2129 5.02499 34.2235 -4.42469 -63.5536 -6.43965 -0.786536 -1.66171 22.5311 -0.998758 -6.61182 5.47714 1.48917 3.45035 
23.4148 99.2417 -344.93 77.0728 -84.4647 74.0698 -174.532 3.48677 92.1379 -31.3993 23.5163 6.80198 72.8199 7.97003 3.01644 35.55 1.37675 4.662 173.314 -4.99227 90.3756 -20.898 16.3096 3.87524 78.804 -5.8855 2.41267 24.3694 -2.06187 4.1744 -0.634878 7.90598 -90.0029 11.0635 -1.26508 0.116149 -0.60682 -1.25874 0.171717 -23.1468 -1.2415 -0.269492 -3.1342 -1.24149 -0.269495 88.427 -47.328 -103.737 33.565 -7.3895 32.7442 -48.0669 1.98207 -82.8296 -6.25231 -0.515747 5.02386 -87.5011 -43.0363 81.3847 -30.7959 34.1756 9.69169 33.0775 -9.16359 -70.9897 -8.22908 -0.183213 -2.45203 22.9961 -0.934616 -4.97152 5.71347 0.975867 2.7094 
23.1651 98.8754 -343.924 79.8824 -80.5578 76.4374 -176.548 9.85903 91.0036 -41.6324 20.2518 8.08224 71.8045 6.87104 1.75608 33.956 1.39364 2.12063 173.008 -5.63766 90.7988 -20.7042 19.1369 4.95597 79.7253 -5.99487 1.28003 24.1752 -2.11332 4.21417 -0.898941 7.94274 -90.0525 10.9901 -1.81384 0.0685823 -0.679596 -1.80907 0.148368 -23.2244 -1.75058 -0.479896 -3.21178 -1.75057 -0.479897 88.3217 -47.1287 -103.957 34.1162 -6.91235 33.6082 -50.911 2.02101 -83.6178 -5.2608 -0.379065 3.77477 -87.1859 -42.1254 81.7163 -32.5926 33.7297 12.6679 32.9957 -12.0816 -75.8539 -7.74658 -0.134449 -3.17115 24.4176 -1.68502 -5.36039 5.44972 0.529111 3.76139 
22.9883 98.3142 -342.673 80.6612 -77.0026 77.0062 -177.912 15.6744 89.8333 -51.1752 21.8554 8.70438 70.4804 7.13903 5.67721 32.8407 1.64942 -0.388927 173.122 -6.31348 91.5416 -20.8141 23.6171 5.91544 80.9475 -5.53959 2.49011 24.1844 -1.60461 2.69295 -1.02054 8.00896 -90.1387 10.8565 -2.09598 -0.0794034 -0.812706 -2.09744 0.0129588 -23.3603 -1.97518 -0.705904 -3.34762 -1.97518 -0.705913 86.904 -48.0266 -105.91 32.6139 -3.97699 34.2665 -51.1221 2.43935 -85.1298 -6.81991 -0.534896 4.47067 -87.208 -40.904 81.4315 -34.2566 33.3665 14.9136 33.3383 -14.0669 -79.5952 -7.59676 -0.127071 -3.28282 26.1351 -2.78613 -6.16933 5.8372 -0.0130988 5.29897 
22.7579 97.7442 -341.16 78.2904 -74.7333 74.4476 -178.638 21.5132 88.5118 -58.288 19.0419 8.0431 70.9019 7.26156 5.92052 30.9464 1.38056 -1.8856 173.625 -6.5282 92.2598 -20.1987 25.5014 6.09563 81.1107 -4.97833 2.57555 25.1119 -1.51871 2.96557 -0.951857 7.96372 -90.2051 10.9457 -1.98985 -0.219209 -0.723692 -1.99758 -0.131388 -23.2695 -1.83196 -0.807294 -3.25682 -1.83195 -0.8073 86.9279 -48.3718 -105.769 31.7327 -2.34423 33.4616 -52.9128 2.97198 -86.7412 -7.15316 -0.601858 5.13417 -87.2445 -40.5641 81.3005 -35.1143 33.4416 17.7583 34.5267 -15.9022 -82.6667 -6.55686 -0.163616 -2.13656 27.4636 -3.93488 -6.39838 5.40603 -0.890546 6.31045 
22.4633 97.0597 -339.517 74.46 -73.8125 70.7006 -178.299 27.2627 87.3951 -63.394 16.0102 6.6343 71.6834 7.13832 4.71407 30.1879 1.26976 -2.4209 174.583 -7.07384 93.3504 -18.161 25.3924 5.49467 81.3668 -4.9999 0.860087 25.9529 -1.95838 4.91956 -0.747075 7.94443 -90.3678 10.9814 -1.65752 -0.573726 -0.688516 -1.68117 -0.500205 -23.2293 -1.40846 -1.04542 -3.21663 -1.40846 -1.04543 87.0906 -47.612 -105.744 30.3987 -0.152181 31.4178 -52.5487 4.06224 -88.9126 -6.53488 -0.520838 4.68028 -87.0768 -41.7403 81.8177 -34.6879 33.5661 19.4963 37.0542 -17.1713 -84.5967 -5.52031 -0.164031 -1.37553 29.6164 -4.56554 -4.61508 4.38774 -2.14994 5.87236 
22.2394 96.6097 -337.763 67.2306 -74.1186 63.4174 -177.173 32.7221 85.9195 -65.81 14.3434 4.76094 71.8654 6.70351 3.06883 29.7707 1.43074 -3.43826 174.951 -4.90858 94.1523 -19.6561 18.1547 4.12318 80.1669 -4.16707 -6.77621 31.2174 1.33059 -3.68168 -0.374358 7.85052 -90.3965 11.1697 -0.929332 -0.698357 -0.501111 -0.959172 -0.656792 -23.0364 -0.6765 -0.945374 -3.02371 -0.676491 -0.945374 86.051 -48.4765 -107.087 25.8562 4.47551 28.8049 -50.4421 5.5822 -93.0095 -9.04263 -0.896492 6.8651 -87.6631 -41.5662 80.8143 -36.129 31.9194 23.1799 39.3869 -18.4535 -86.6663 -4.66282 -0.149596 -1.04405 30.4534 -5.50363 -4.78062 4.54512 -2.87629 6.60814 
21.6214 96.378 -335.544 60.6532 -75.0248 57.2524 -175.337 37.0435 85.2555 -66.9005 16.4415 3.1588 71.7169 6.5661 3.22243 30.1015 1.54244 -3.42065 175.157 -1.57415 96.3381 -26.1312 13.9258 3.21488 68.5074 2.71402 -11.078 51.5515 4.10285 -10.1836 0.0341205 7.87066 -90.4901 11.1318 -0.15965 -0.961459 -0.53949 -0.201817 -0.953508 -23.0718 0.136671 -0.964984 -3.05918 0.136672 -0.964997 85.6476 -48.763 -107.616 19.8446 14.5591 31.5351 -45.3245 9.68992 -105.288 -6.88274 -0.686991 7.44289 -87.0404 -41.5382 81.839 -36.3942 30.5815 25.3837 37.7114 -19.4124 -88.5323 -2.25393 -0.0827513 -1.84624 32.0535 -5.96913 -4.26002 4.28008 -3.44834 6.97408 
21.1736 95.4418 -333.541 49.824 -75.2539 45.715 -172.95 42.8372 82.696 -67.6897 17.817 1.24398 72.5967 6.79246 2.94019 31.2433 1.42583 -1.67322 174.383 3.94173 94.7165 -35.2358 10.4055 2.73023 57.0844 10.1509 -9.8121 70.3672 4.92859 -12.1195 0.421686 7.78121 -90.4379 11.3122 0.635259 -0.933765 -0.35891 0.593547 -0.960834 -22.8935 0.886511 -0.699689 -2.88087 0.886509 -0.699697 85.6236 -49.3097 -107.479 15.0723 18.3576 24.9267 -45.9401 11.7051 -109.336 -9.9581 -0.984725 7.01781 -87.1596 -41.4806 81.6301 -37.7225 28.2058 29.235 38.8349 -20.4026 -90.22 -0.814171 -0.0576192 -1.95871 33.5626 -6.17467 -3.6538 4.24646 -3.81895 7.24809 
21.2893 94.5554 -330.547 55.7188 -76.2747 53.7933 -172.702 45.2734 82.8956 -69.872 19.0423 1.39179 73.8213 7.40608 3.63853 31.9487 1.78448 -2.04236 174.994 0.543112 96.8836 -33.8855 11.4823 3.43087 41.4556 16.9033 -6.87367 87.3603 6.41213 -8.45766 0.565667 8.10072 -90.8528 10.6776 0.733701 -1.76572 -0.994393 0.655302 -1.79629 -23.5243 1.23041 -1.46368 -3.51169 1.23041 -1.46368 85.7083 -49.2501 -107.37 11.3417 17.9639 10.201 -39.1405 8.66738 -107.747 -13.7243 -1.71308 9.70817 -87.1063 -42.3109 81.8834 -38.7912 25.9411 33.274 39.4815 -21.4081 -91.8078 0.136415 -0.0440364 -2.17782 34.5405 -5.65185 -1.72954 4.24685 -4.18639 6.22512 
